<?xml version="1.0" encoding="utf-8"?>
<!-- Generator: Adobe Illustrator 25.2.1, SVG Export Plug-In . SVG Version: 6.00 Build 0)  -->
<svg version="1.1" id="Layer_1" xmlns="http://www.w3.org/2000/svg" xmlns:xlink="http://www.w3.org/1999/xlink" x="0px" y="0px"
	 viewBox="0 0 1273.96 1212.19" style="enable-background:new 0 0 1273.96 1212.19;" xml:space="preserve">
<style type="text/css">
	.st0{fill:#2e7d32;}
	.st1{fill:#FEFEFE;}
</style>
<g>
	<path class="st0" d="M673.19,384.56c-0.64-9.21-1.28-17.8-1.83-26.39c-2.42-37.92,3.75-74.56,15.72-110.5
		c9.7-29.14,24.92-55.05,42.69-79.88c22.66-31.66,52.18-55.09,84.82-75.48c24.26-15.16,50.36-25.06,78-31.37
		c32.03-7.3,64.31-9.13,97.05-5.1c33.11,4.07,64.93,12.53,94.1,28.55c35.88,19.7,68.59,43.96,93.82,76.76
		c33.75,43.88,55.07,93.06,61.38,148.44c2.83,24.82,2.79,49.53-0.82,74.57c-20.55,0-41.12,0-61.13,0
		c11.47-105.84-23.88-190.42-118.64-241.62c-80.78-43.64-163.28-36.12-236.22,19.58c-72.24,55.17-99.13,131.59-86.96,220.18
		c16.26,5.55,32.15,8.85,45.94,16.12c32.5,17.14,58.35,41.62,71.68,76.88c6.12,16.18,9.94,33.05,9.94,50.63
		c-0.07,139.62,0.01,279.24-0.08,418.86c-0.02,27.35-8.53,52.13-23.09,75.2c-22.56,35.74-55.18,55.84-96.21,63.14
		c-6.73,1.2-13.67,1.68-20.52,1.68c-172.69,0.09-345.38,0.33-518.06-0.11c-44.72-0.12-81.97-18.42-109.36-53.91
		c-19.92-25.81-30.63-55.41-30.58-88.69c0.21-137.84-0.28-275.68,0.28-413.52c0.23-55.6,25.79-97.24,73.77-125.57
		c12.16-7.18,25.26-10.68,38.17-15.45c9.13-3.38,17.77-2.94,26.64-2.95c153.79-0.12,307.59-0.05,461.38-0.02
		C667.71,384.56,670.32,384.56,673.19,384.56z M464.25,448.22c0-0.1,0-0.19,0-0.29c-84.45,0-168.89-0.03-253.34,0.05
		c-6.42,0.01-12.93,0.16-19.24,1.24c-40.18,6.86-65.29,43.3-65.35,80.04c-0.06,36.24-0.04,72.47-0.03,108.71
		c0.02,102.04-0.22,204.08,0.22,306.12c0.19,43.09,36.04,77.85,79.19,77.87c172.24,0.08,344.47,0.04,516.71-0.05
		c5.28,0,10.65-0.71,15.83-1.8c36.39-7.65,63.56-40.68,63.35-82.48c-0.67-134.94-0.25-269.89-0.27-404.83c0-3.33,0.12-6.69-0.2-10
		c-3.25-34.16-26.46-66.49-63.07-72.87c-11.24-1.96-22.95-1.63-34.45-1.65C623.82,448.16,544.03,448.22,464.25,448.22z"/>
	<path class="st1" d="M464.25,448.22c79.78,0,159.57-0.06,239.35,0.07c11.5,0.02,23.21-0.32,34.45,1.65
		c36.61,6.39,59.82,38.71,63.07,72.87c0.32,3.31,0.2,6.66,0.2,10c0.01,134.94-0.41,269.89,0.27,404.83
		c0.21,41.8-26.96,74.83-63.35,82.48c-5.18,1.09-10.55,1.8-15.83,1.8c-172.24,0.1-344.47,0.13-516.71,0.05
		c-43.15-0.02-79-34.79-79.19-77.87c-0.44-102.04-0.2-204.08-0.22-306.12c-0.01-36.24-0.03-72.47,0.03-108.71
		c0.06-36.74,25.17-73.18,65.35-80.04c6.3-1.08,12.82-1.23,19.24-1.24c84.45-0.08,168.89-0.05,253.34-0.05
		C464.25,448.03,464.25,448.12,464.25,448.22z"/>
</g>
</svg>
