<?xml version="1.0" encoding="utf-8"?>
<!-- Generator: Adobe Illustrator 25.2.1, SVG Export Plug-In . SVG Version: 6.00 Build 0)  -->
<svg version="1.1" id="Layer_1" xmlns="http://www.w3.org/2000/svg" xmlns:xlink="http://www.w3.org/1999/xlink" x="0px" y="0px"
	 viewBox="0 0 780.68 858.81" style="enable-background:new 0 0 780.68 858.81;" xml:space="preserve">
<style type="text/css">
	.st0{fill:#2e7d32;}
	.st1{fill:#FEFEFE;}
</style>
<g>
	<path class="st0" d="M164.7,301.74c-8.4-71.45,11.14-133.55,61.94-184.34c40.8-40.78,91.04-61.03,148.71-61.84
		c42.14-0.59,81.27,10.52,116.89,33.2c35.78,22.78,62.73,53.47,80.39,92.11c17.56,38.42,22.98,78.7,17.2,120.39
		c7.58,2.5,14.92,4.5,21.95,7.3c21.78,8.7,37.98,23.86,50.88,43.32c11.68,17.62,15.88,36.86,15.86,57.56
		c-0.06,101.09-0.03,202.18-0.02,303.27c0,15.95-3.06,31.41-10.91,45.2c-18.69,32.86-45.69,54.39-84.39,58.67
		c-5.28,0.58-10.63,0.83-15.95,0.84c-128.05,0.04-256.11,0.04-384.16,0.03c-51.62-0.01-96.35-37.99-104.64-88.98
		c-0.85-5.24-1.17-10.63-1.17-15.95C77.22,610.26,77.22,508,77.25,405.74c0.01-49.46,35.26-92.69,83.71-102.82
		C162.08,302.68,163.16,302.23,164.7,301.74z M377.21,347c0-0.07,0-0.14,0-0.21c-64.42,0-128.85-0.07-193.27,0.03
		c-33.73,0.05-60.43,25.73-60.5,58.92c-0.22,102.07-0.23,204.13,0,306.2c0.07,33,26.92,59.24,59.81,59.25
		c129.36,0.05,258.71,0.03,388.07-0.05c4.29,0,8.69-0.47,12.86-1.45c28.75-6.77,47.06-29.9,47.2-59.57
		c0.1-20.71,0.01-41.43,0.01-62.14c0-79.85,0.03-159.7-0.02-239.55c-0.02-27.72-15.42-49.62-40.76-58.57
		c-10.51-3.71-21.32-2.9-32.14-2.89C498.05,347.04,437.63,347,377.21,347z M542.68,299.99c11.42-53.82-7.85-124.26-67.52-167.1
		c-56.73-40.72-135.17-41.65-193.04-1.78c-59.76,41.18-81.88,110.91-70.16,168.88C322.18,299.99,432.45,299.99,542.68,299.99z"/>
	<path class="st1" d="M377.21,347c60.42,0,120.84,0.04,181.27-0.03c10.82-0.01,21.63-0.82,32.14,2.89
		c25.35,8.95,40.75,30.85,40.76,58.57c0.05,79.85,0.02,159.7,0.02,239.55c0,20.71,0.09,41.43-0.01,62.14
		c-0.15,29.66-18.45,52.8-47.2,59.57c-4.18,0.98-8.57,1.45-12.86,1.45c-129.36,0.08-258.71,0.1-388.07,0.05
		c-32.89-0.01-59.74-26.25-59.81-59.25c-0.23-102.07-0.22-204.13,0-306.2c0.07-33.18,26.77-58.87,60.5-58.92
		c64.42-0.1,128.85-0.03,193.27-0.03C377.21,346.86,377.21,346.93,377.21,347z"/>
	<path class="st1" d="M542.68,299.99c-110.23,0-220.5,0-330.72,0c-11.72-57.97,10.4-127.7,70.16-168.88
		c57.86-39.87,136.31-38.94,193.04,1.78C534.83,175.72,554.09,246.17,542.68,299.99z"/>
</g>
</svg>
