<?xml version="1.0" encoding="utf-8"?>
<svg version="1.1" id="Layer_1" xmlns="http://www.w3.org/2000/svg" xmlns:xlink="http://www.w3.org/1999/xlink" x="0px" y="0px"
	 viewBox="0 0 3000 3000" style="enable-background:new 0 0 3000 3000;" xml:space="preserve">
<style type="text/css">
	.st5{fill:#C09639;}
</style>
<path class="st5" d="M1505.22,1244.05c80.13,138.66,158.86,274.89,238.11,412.03c-3.23,1.15-5.1,2.39-6.99,2.42
	c-45.23,0.66-90.47,1.65-135.7,1.23c-6.28-0.06-14.65-5.76-18.34-11.32c-10.78-16.2-19.69-33.65-30.71-53.05
	c27.15,0,52.18,0,80.43,0c-43.06-74.9-84.45-146.9-126.79-220.55c-42.01,73.07-82.9,144.19-125.53,218.34c27.38,0,51.46,0,79.82,0
	c-12.62,22.1-22.69,41.19-34.42,59.19c-2.82,4.33-11.18,7-17.04,7.08c-40.36,0.6-80.74,0.49-121.11,0.1
	c-5.45-0.05-10.87-2.9-18.77-5.16C1347.61,1516.86,1425.75,1381.61,1505.22,1244.05z"/>
</svg>
