<?xml version="1.0" encoding="utf-8"?>
<!-- Generator: Adobe Illustrator 25.2.1, SVG Export Plug-In . SVG Version: 6.00 Build 0)  -->
<svg version="1.1" id="Layer_1" xmlns="http://www.w3.org/2000/svg" xmlns:xlink="http://www.w3.org/1999/xlink" x="0px" y="0px"
	 viewBox="0 0 748.51 730.13" style="enable-background:new 0 0 748.51 730.13;" xml:space="preserve">
<style type="text/css">
	.st0{fill:#CF6C38;}
	.st1{fill:#6E6E6E;}
	.st2{fill:#6A6A6A;}
	.st3{fill:#6C6C6C;}
	.st4{fill:#646464;}
	.st5{fill:#585858;}
	.st6{fill:#545454;}
	.st7{fill:#696969;}
	.st8{fill:#363636;}
	.st9{fill:#2C2C2C;}
	.st10{fill:#FDFDFD;}
</style>
<g>
	<path class="st0" d="M533.13,129.81c2,2.97,4.01,5.94,6.01,8.92c-0.32,0.82-1.15,1.93-0.87,2.4c2.61,4.52,5.35,8.98,8.21,13.34
		c0.49,0.74,1.76,0.97,2.66,1.43c0.55,0.93,1.1,1.87,1.64,2.8c-1.81,3.26,0.7,8.99,4.98,11.35c0.15,0.24,0.21,0.51,0.18,0.79
		c-0.15,1.34-0.78,2.84-0.38,3.98c5.18,14.88,8.81,30.05,11.13,45.69c2.74,18.49,2.11,36.68-1.72,54.84
		c-1.6,7.59-3.24,15.21-5.59,22.58c-2.94,9.2-6.44,18.23-10.07,27.18c-2.34,5.77-5.35,11.27-8.07,16.89
		c-1.02,1.02-2.2,1.94-3.03,3.09c-5.01,6.91-9.26,14.53-15.06,20.68c-8.56,9.07-18.25,17.07-27.32,25.66
		c-1.04,0.99-1.24,2.87-1.83,4.33c-0.92,0.66-1.84,1.32-2.77,1.97c-0.92-0.09-2.26-0.61-2.67-0.2c-1.46,1.46-2.59,3.24-4.01,5.11
		c1.08,0.54,1.66,0.83,2.24,1.11c17.75,8.82,35.92,16.91,53.13,26.67c15.97,9.06,30.94,19.95,43.86,33.2
		c12.31,12.63,25.15,24.9,36.06,38.67c10.58,13.35,19.4,28.17,28.25,42.79c5.28,8.72,9.78,18.05,13.47,27.56
		c4.39,11.32,7.96,23.02,11.12,34.75c3.51,13.06,6.82,26.24,9,39.56c1.95,11.95,2.22,24.18,3.29,36.28c0.23,2.65-0.42,4.1-3.43,4.08
		c-13.69-0.07-27.38-0.05-41.08,0c-3.2,0.01-4.42-1.41-4.39-4.58c0.14-20.78-3.45-40.96-8.89-60.99
		c-5.22-19.21-12.74-37.49-22.03-54.89c-11.41-21.36-26.33-40.44-43.4-57.61c-9.22-9.28-19.1-18.03-29.45-26.04
		c-9.18-7.1-19.04-13.56-29.28-19c-10.48-5.57-21.72-9.75-32.78-14.16c-7.6-3.03-15.46-5.43-23.2-8.11
		c-1.97-0.49-3.95-0.98-5.92-1.47c-0.61-0.13-1.22-0.25-1.83-0.38c-3.5-3.4-7.74-3.58-12.2-2.77c-2.28-0.41-4.57-0.82-6.85-1.23
		c-1.06-0.22-2.11-0.44-3.17-0.67c-1.3-0.09-2.59-0.18-3.89-0.27c-2.04-0.26-4.09-0.53-6.13-0.79c-1.29-0.09-2.57-0.18-3.86-0.26
		c-1.72-0.27-3.44-0.55-5.16-0.82c-3.27-0.1-6.54-0.2-9.82-0.3c-0.77-0.52-1.52-1.46-2.3-1.48c-5.63-0.13-11.26-0.13-16.89,0
		c-0.76,0.02-1.5,1-2.25,1.53c-1.94,0.11-3.89,0.21-5.83,0.32c-1.73,0.23-3.47,0.45-5.2,0.68c-1.61,0.11-3.21,0.23-4.82,0.34
		c-2.37,0.27-4.75,0.53-7.12,0.8c-0.97,0.05-1.93,0.11-2.9,0.16c-1.4,0.24-2.79,0.48-4.19,0.72c-0.61,0.09-1.21,0.18-1.82,0.26
		c-0.73,0.24-1.47,0.48-2.2,0.72c-0.94,0.13-1.88,0.26-2.81,0.39c-3.53-1.91-6.48-0.87-9.1,1.81c-1.65,0.51-3.3,1.03-4.96,1.54
		c-0.41-0.33-0.82-0.65-1.23-0.98c-0.24,0.52-0.49,1.05-0.73,1.57c-1.96,0.21-4.02,0.12-5.86,0.7c-5.1,1.6-10.14,3.4-15.15,5.26
		c-7.18,2.66-14.62,4.85-21.42,8.29c-10.59,5.36-20.95,11.24-30.99,17.56c-10.28,6.46-20.96,12.56-28.91,22.13
		c-4.76,3.89-9.55,7.73-14.21,11.74c-0.46,0.4-0.03,1.82-0.02,2.76c-0.54,0.48-1.08,0.95-1.61,1.43c0.03-0.16,0.1-0.32,0.08-0.48
		c-0.02-0.14-0.12-0.27-0.19-0.41c-2.04,1.41-5.36,1.85-4.25,5.64c-0.38,0.4-0.77,0.81-1.15,1.21c-0.81,0.14-1.9-0.01-2.37,0.47
		c-2.87,2.91-5.94,5.71-8.32,9c-6.41,8.87-12.51,17.97-18.74,26.98c-7.58,14.57-15.92,28.8-22.47,43.82
		c-4.77,10.93-7.35,22.85-10.59,34.42c-1.46,5.2-2.58,10.57-3.14,15.94c-1.29,12.26-2.09,24.57-3.27,36.84
		c-0.09,0.93-1.63,2.44-2.52,2.45c-14.15,0.25-28.31,0.37-42.47,0.34c-2.7,0-4.26-1.65-3.9-4.63c0.44-3.62,0.81-7.24,1.21-10.86
		c0.22-2.05,0.44-4.1,0.66-6.15c0.11-2.29,0.23-4.58,0.34-6.88c0.19-2.05,0.39-4.1,0.58-6.15c1.96-10.19,3.67-20.44,5.96-30.56
		c2.41-10.65,4.66-21.42,8.22-31.71c7.36-21.29,16.87-41.72,29.02-60.71c7.94-12.4,16.74-24.3,25.86-35.88
		c6-7.62,13.35-14.17,19.89-21.38c1.98-2.18,3.28-4.98,4.88-7.49l0.19-0.19c1.59-0.58,3.49-0.78,4.72-1.79
		c7.12-5.85,13.65-12.53,21.2-17.73c13.16-9.06,26.67-17.66,40.5-25.64c8.3-4.78,17.51-7.96,26.27-11.97c3.29-1.51,6.45-3.33,9.66-5
		c0.11-0.59,0.23-1.17,0.34-1.76c-2.19-1.35-4.38-2.69-6.57-4.04c-0.33-0.1-0.66-0.2-0.99-0.3c-4.13-3.52-8.27-7.03-12.4-10.55
		c-0.99-0.78-1.98-1.56-2.97-2.34c-1.02-1.63-1.82-3.48-3.1-4.87c-10.99-11.94-22.2-23.7-29.68-38.38
		c-0.57-1.11-2.23-1.67-3.38-2.48c-0.34-0.7-0.67-1.39-1.01-2.09c-2.24-4.35-4.48-8.7-6.72-13.05c-0.11-0.31-0.22-0.62-0.33-0.94
		c-0.89-1.69-1.78-3.39-2.67-5.08c-0.33-1.13-0.67-2.27-1-3.4c-1.54-5.36-3.06-10.73-4.67-16.07c-0.09-0.3-0.84-0.4-1.29-0.6
		c-0.1-0.59-0.2-1.18-0.3-1.78c0.91-3.61,0.25-6.77-2.71-9.24c-0.09-0.6-0.17-1.19-0.26-1.79c-0.23-3.99-0.14-8.04-0.77-11.97
		c-0.56-3.5-1.9-6.88-2.89-10.31c-0.05-1.26-0.1-2.53-0.15-3.79c0.29-8.29,0.64-16.58,0.81-24.88c0.04-2.02-0.51-4.06-0.78-6.09
		c0.01-0.6,0.03-1.2,0.04-1.8c1.17-4.7,2.58-9.36,3.44-14.12c0.54-2.98,0.25-6.11,0.34-9.17c0.06-0.59,0.13-1.19,0.19-1.78
		c1.14-2.63,2.38-5.21,3.38-7.89c0.78-2.11,1.34-4.33,1.85-6.53c0.36-1.58,0.47-3.21,0.7-4.82c0.06-0.59,0.13-1.18,0.19-1.77
		c2.55-5.11,5.09-10.22,7.66-15.31c2.37-4.68,4.75-9.36,7.17-14.02c2.58-4.95,5.21-9.87,7.82-14.81l0.06-0.07
		c0.65-0.97,1.3-1.95,1.96-2.92c0,0,0.07-0.07,0.07-0.07c2.37-2.41,5-4.62,7.07-7.27c13.92-17.83,30.52-32.64,50.2-43.75
		c8.87-5,18.18-9.31,27.6-13.22c8.59-3.56,17.4-7.03,26.46-8.95c11.28-2.39,22.88-3.77,34.4-4.44c10.96-0.63,22.16-0.88,32.96,0.72
		c13.34,1.98,26.68,5.11,39.43,9.46c11.81,4.02,23.1,9.84,34.14,15.74c8.39,4.49,16.04,10.36,24.02,15.61
		c4.71,4.21,9.43,8.42,14.14,12.64c0.95,0.43,1.9,0.87,2.85,1.3c1.48,1.54,2.96,3.08,4.44,4.62c-0.17,3.08,0.27,3.55,3.26,3.44
		l0.2,0.26c0.32,0.51,0.65,1.03,0.97,1.54c0.61,0.65,1.21,1.29,1.82,1.94c-0.02,0.39-0.04,0.78-0.06,1.17
		c0.34-0.05,0.69-0.1,1.03-0.14c0.13,0.69,0.26,1.37,0.39,2.05c-0.05,0.13-0.1,0.26-0.15,0.39c0-0.13,0-0.26,0.01-0.39
		c0.57,0.23,1.13,0.46,1.7,0.68c-0.27,0.46-0.53,0.91-0.8,1.37c0.6-0.06,1.2-0.13,1.8-0.19c0.08,0.34,0.16,0.67,0.24,1.01
		c0.04,0.21,0.09,0.42,0.13,0.63c-0.08-0.21-0.15-0.41-0.23-0.62c0.37,0.19,0.74,0.38,1.11,0.57
		C532.41,128.65,532.77,129.23,533.13,129.81z M520.08,242.23c0.22-76.38-63.21-140.98-141.34-141.04
		c-76.47-0.07-141.43,63.32-141.77,140.47c-0.36,80.43,64.41,141.96,140.01,142.8C455.05,385.34,519.93,323.16,520.08,242.23z"/>
	<path class="st1" d="M315.82,440.8c1.65-0.51,3.3-1.03,4.96-1.54c3.03-0.6,6.07-1.21,9.1-1.81c0.94-0.13,1.88-0.26,2.81-0.39
		c0.73-0.24,1.47-0.48,2.2-0.72c0.61-0.09,1.21-0.18,1.82-0.26c1.4-0.24,2.79-0.48,4.19-0.72c0.97-0.05,1.93-0.11,2.9-0.16
		c2.37-0.27,4.75-0.54,7.12-0.8c1.61-0.11,3.21-0.23,4.82-0.34c1.73-0.23,3.47-0.45,5.2-0.68c1.94-0.11,3.89-0.21,5.83-0.32
		c7.14-0.02,14.29-0.03,21.43-0.05c3.27,0.1,6.54,0.2,9.82,0.3c1.72,0.27,3.44,0.55,5.16,0.82c1.29,0.09,2.57,0.18,3.86,0.26
		c2.04,0.26,4.09,0.53,6.13,0.79c1.3,0.09,2.59,0.18,3.89,0.27c1.06,0.22,2.11,0.44,3.17,0.67c2.28,0.41,4.57,0.82,6.85,1.23
		c4.07,0.92,8.13,1.85,12.2,2.77c0.61,0.13,1.22,0.25,1.83,0.37c1.97,0.49,3.95,0.98,5.92,1.47c7.74,2.68,15.6,5.08,23.2,8.11
		c11.06,4.41,22.3,8.6,32.78,14.16c10.25,5.44,20.1,11.89,29.28,19c10.35,8.01,20.23,16.76,29.45,26.04
		c17.07,17.17,31.99,36.25,43.4,57.61c9.29,17.4,16.81,35.69,22.03,54.89c5.44,20.02,9.04,40.21,8.89,60.99
		c-0.02,3.17,1.19,4.6,4.39,4.58c13.69-0.05,27.38-0.07,41.08,0c3.02,0.02,3.67-1.44,3.43-4.08c-1.07-12.1-1.34-24.33-3.29-36.28
		c-2.18-13.33-5.48-26.51-9-39.56c-3.16-11.74-6.73-23.43-11.12-34.75c-3.69-9.51-8.19-18.84-13.47-27.56
		c-8.85-14.62-17.67-29.44-28.25-42.79c-10.92-13.77-23.75-26.04-36.06-38.67c-12.92-13.25-27.89-24.14-43.86-33.2
		c-17.21-9.77-35.38-17.85-53.13-26.67c-0.58-0.29-1.16-0.58-2.24-1.11c1.42-1.87,2.55-3.65,4.01-5.11c0.41-0.41,1.75,0.11,2.67,0.2
		c-0.5,1.5-1,3-1.54,4.61c28.04,10.83,53.66,25.13,76.94,43.22c29.6,23,55.19,49.92,73.95,82.61c9.19,16.01,17.73,32.48,25.17,49.36
		c4.95,11.23,8.05,23.4,10.87,35.4c3.73,15.9,6.83,31.98,9.31,48.12c1.26,8.18,0.6,16.66,0.7,25.01c0.04,3.01-1.59,4.56-4.69,4.55
		c-14.53-0.03-29.06-0.01-43.58-0.02c-5.33,0-5.54-3.88-5.55-7.63c-0.06-18.69-2.86-37.06-7.23-55.14
		c-5.7-23.63-14.67-46.08-27.12-66.96c-15.89-26.66-35.58-49.99-60.1-69.45c-28.24-22.42-59.6-38.1-94.15-47.65
		c-28.69-7.93-58.1-9.27-87.58-7.36c-22.38,1.44-44.3,6.31-65.32,14.21c-23.2,8.72-45.22,19.82-64.85,35.24
		c-4.92,3.86-9.96,7.58-14.95,11.36c-0.01-0.63-0.01-1.26-0.02-1.9c7.95-9.57,18.63-15.67,28.91-22.13
		c10.05-6.31,20.41-12.2,30.99-17.56c6.8-3.44,14.23-5.63,21.42-8.29c5.01-1.85,10.05-3.66,15.15-5.26c1.85-0.58,3.9-0.49,5.86-0.7
		C314.51,441.19,315.17,441,315.82,440.8z"/>
	<path class="st2" d="M169.01,465.08c-1.61,2.51-2.91,5.31-4.88,7.49c-6.54,7.21-13.89,13.76-19.89,21.38
		c-9.12,11.57-17.92,23.48-25.86,35.88c-12.15,18.98-21.66,39.42-29.02,60.71c-3.56,10.29-5.81,21.06-8.22,31.71
		c-2.28,10.12-4,20.37-5.96,30.56c-0.19,2.05-0.39,4.1-0.58,6.15c-0.11,2.29-0.23,4.58-0.34,6.88c-0.22,2.05-0.44,4.1-0.66,6.15
		c-0.4,3.62-0.77,7.24-1.21,10.86c-0.36,2.98,1.2,4.63,3.9,4.63c14.16,0.02,28.32-0.09,42.47-0.34c0.89-0.02,2.43-1.53,2.52-2.45
		c1.18-12.27,1.98-24.58,3.27-36.84c0.56-5.37,1.68-10.74,3.14-15.94c3.25-11.57,5.82-23.48,10.59-34.42
		c6.56-15.01,14.9-29.25,22.47-43.82c0.62-0.01,1.24-0.02,1.86-0.03c-2.58,4.96-5.33,9.85-7.69,14.91
		c-5.36,11.48-10.75,22.95-15.72,34.6c-6.59,15.45-9.36,31.98-12.56,48.33c-1.17,5.99-1.1,12.24-1.46,18.38
		c-0.29,4.95-0.35,9.91-0.54,14.87c-0.16,4.16-2.84,6.06-7.21,6c-13.19-0.18-26.38-0.1-39.57-0.12c-6.92-0.01-7.52-0.9-7.43-7.72
		c0.31-23.03,3.38-45.65,9.1-67.95c5.78-22.52,13.22-44.46,24.75-64.69c9-15.79,18.37-31.48,28.9-46.27
		c7.83-10.99,17.71-20.54,26.83-30.59C162.74,470.38,165.99,467.84,169.01,465.08z"/>
	<path class="st3" d="M499.18,95.8c-7.98-5.26-15.63-11.13-24.02-15.61c-11.05-5.91-22.33-11.72-34.14-15.74
		c-12.76-4.35-26.1-7.48-39.43-9.46c-10.8-1.6-22-1.35-32.96-0.72c-11.53,0.66-23.12,2.04-34.4,4.44
		c-9.05,1.92-17.86,5.39-26.46,8.95c-9.41,3.9-18.73,8.22-27.6,13.22c-19.69,11.1-36.28,25.91-50.2,43.75
		c-2.07,2.65-4.7,4.86-7.07,7.27c4.59-6.16,8.54-12.96,13.92-18.33c9.25-9.25,18.87-18.28,29.26-26.2
		c23.85-18.17,51.05-29.24,80.49-34.34c29.9-5.19,59.52-3.14,88.56,5.86c20.72,6.42,39.7,16.33,57.33,28.89
		c2.52,1.79,4.67,4.1,6.99,6.16C499.36,94.55,499.27,95.18,499.18,95.8z"/>
	<path class="st4" d="M541.26,342.02c2.71-5.62,5.73-11.12,8.07-16.89c3.63-8.95,7.13-17.99,10.07-27.18
		c2.35-7.37,3.99-14.99,5.59-22.58c3.83-18.16,4.46-36.34,1.72-54.84c-2.32-15.64-5.94-30.81-11.13-45.69
		c-0.4-1.14,0.23-2.65,0.38-3.98c2.03,4.4,4.58,8.64,6.01,13.23c7.14,22.88,10.59,46.35,8.94,70.3c-1.01,14.7-3.64,29.18-7.92,43.41
		c-4.81,15.97-11.99,30.75-20.17,45.14c-0.31,0.54-0.96,0.89-1.45,1.33C541.33,343.51,541.29,342.76,541.26,342.02z"/>
	<path class="st2" d="M265.32,396.96c2.19,1.35,4.38,2.69,6.57,4.04c-0.11,0.59-0.23,1.17-0.34,1.76c-3.22,1.68-6.37,3.49-9.66,5
		c-8.75,4.01-17.97,7.19-26.27,11.97c-13.84,7.98-27.35,16.58-40.5,25.64c-7.55,5.2-14.08,11.88-21.2,17.73
		c-1.23,1.01-3.13,1.21-4.72,1.79c9.22-7.98,17.98-16.58,27.75-23.82c19.12-14.18,39.76-25.87,61.87-34.85
		c1.52-0.62,2.85-1.71,4.38-2.3C269.08,401.61,269.11,401.62,265.32,396.96z"/>
	<path class="st5" d="M541.26,342.02c0.03,0.75,0.07,1.49,0.1,2.24c-11.6,20.18-27.33,36.66-45.63,50.82
		c-0.47,0.36-1.14,0.47-1.72,0.7c0.59-1.47,0.79-3.34,1.83-4.33c9.07-8.59,18.77-16.59,27.32-25.66
		c5.8-6.15,10.05-13.77,15.06-20.68C539.06,343.95,540.24,343.04,541.26,342.02z"/>
	<path class="st2" d="M212.79,338.04c1.15,0.81,2.81,1.37,3.38,2.48c7.49,14.67,18.69,26.43,29.68,38.38
		c1.28,1.39,2.08,3.24,3.1,4.87c-3.13-2.8-6.74-5.22-9.31-8.46c-8.98-11.32-17.63-22.91-26.32-34.45
		C212.81,340.18,212.95,338.99,212.79,338.04z"/>
	<path class="st6" d="M162.6,553.64c-0.62,0.01-1.24,0.02-1.86,0.03c6.22-9.01,12.32-18.11,18.74-26.98c2.38-3.29,5.45-6.09,8.32-9
		c0.47-0.47,1.57-0.33,2.37-0.47c-1.72,2.31-3.41,4.65-5.15,6.94C177.56,533.99,170.08,543.82,162.6,553.64z"/>
	<path class="st3" d="M220.82,134.95c-2.61,4.93-5.24,9.85-7.82,14.81c-2.42,4.66-4.8,9.33-7.17,14.02
		c-2.57,5.09-5.11,10.21-7.66,15.31c1.29-4.16,2.05-8.6,3.99-12.43c4.92-9.73,10.32-19.21,15.65-28.73
		C218.47,136.74,219.8,135.93,220.82,134.95z"/>
	<path class="st3" d="M188.05,226.96c0.28,2.03,0.83,4.07,0.78,6.09c-0.17,8.3-0.52,16.59-0.81,24.88
		c-0.58-6.72-1.46-13.43-1.63-20.16C186.31,234.18,187.46,230.57,188.05,226.96z"/>
	<path class="st6" d="M211.52,495.32c0.01,0.63,0.01,1.26,0.02,1.9c-4.75,4.2-9.5,8.41-14.25,12.61c-0.01-0.95-0.44-2.37,0.02-2.76
		C201.97,503.06,206.77,499.21,211.52,495.32z"/>
	<path class="st3" d="M188.18,261.73c1,3.43,2.34,6.81,2.89,10.31c0.63,3.93,0.54,7.97,0.77,11.97
		C188.41,276.94,187.54,269.46,188.18,261.73z"/>
	<path class="st3" d="M191.87,201.88c-0.08,3.06,0.2,6.19-0.34,9.17c-0.86,4.76-2.26,9.42-3.44,14.12
		C187.66,217.13,188.37,209.28,191.87,201.88z"/>
	<path class="st4" d="M549.15,155.89c-0.91-0.46-2.18-0.69-2.66-1.43c-2.86-4.37-5.6-8.82-8.21-13.34c-0.27-0.47,0.55-1.58,0.87-2.4
		C542.48,144.45,545.81,150.17,549.15,155.89z"/>
	<path class="st3" d="M197.98,180.85c-0.22,1.61-0.33,3.25-0.7,4.82c-0.51,2.2-1.06,4.41-1.85,6.53c-0.99,2.68-2.24,5.27-3.38,7.89
		C194.03,193.68,196,187.27,197.98,180.85z"/>
	<path class="st4" d="M499.18,95.8c0.09-0.63,0.18-1.25,0.27-1.88c4.63,4.19,9.26,8.37,13.89,12.56c-0.01,0.65-0.01,1.3-0.02,1.95
		C508.61,104.23,503.9,100.01,499.18,95.8z"/>
	<path class="st3" d="M195.11,296.81c0.44,0.19,1.2,0.3,1.29,0.6c1.6,5.34,3.13,10.71,4.67,16.07
		C199.08,307.93,197.09,302.37,195.11,296.81z"/>
	<path class="st4" d="M555.77,170.05c-4.28-2.37-6.79-8.09-4.98-11.35C552.45,162.48,554.11,166.27,555.77,170.05z"/>
	<path class="st2" d="M205.06,322.9c2.24,4.35,4.48,8.7,6.72,13.05C209.54,331.6,207.3,327.25,205.06,322.9z"/>
	<path class="st2" d="M251.93,386.11c4.13,3.52,8.27,7.03,12.4,10.55C260.19,393.14,256.06,389.62,251.93,386.11z"/>
	<path class="st3" d="M192.1,285.8c2.96,2.48,3.62,5.63,2.71,9.24C193.9,291.96,193,288.88,192.1,285.8z"/>
	<path class="st6" d="M191.32,516.01c-1.11-3.78,2.21-4.23,4.25-5.64c0.07,0.14,0.17,0.27,0.19,0.41c0.02,0.15-0.05,0.32-0.08,0.48
		C194.23,512.84,192.78,514.43,191.32,516.01z"/>
	<path class="st2" d="M202.06,316.88c0.89,1.69,1.78,3.39,2.67,5.08C203.84,320.27,202.95,318.58,202.06,316.88z"/>
	<path class="st4" d="M523.88,117.8c-2.98,0.1-3.43-0.36-3.26-3.44C521.71,115.5,522.79,116.65,523.88,117.8z"/>
	<path class="st3" d="M513.32,108.44c0.01-0.65,0.01-1.3,0.02-1.95c0.95,1.08,1.89,2.17,2.84,3.25
		C515.23,109.31,514.27,108.87,513.32,108.44z"/>
	<path class="st3" d="M222.83,131.96c-0.65,0.97-1.3,1.95-1.96,2.92C221.53,133.91,222.18,132.93,222.83,131.96z"/>
	<path class="st4" d="M530.79,126.49c-0.6,0.06-1.2,0.13-1.8,0.19c0.27-0.46,0.53-0.91,0.8-1.37
		C530.13,125.7,530.46,126.09,530.79,126.49z"/>
	<path class="st3" d="M533.13,129.81c-0.36-0.58-0.72-1.16-1.08-1.74C532.41,128.65,532.77,129.23,533.13,129.81z"/>
	<path class="st3" d="M527.85,122.57c-0.34,0.05-0.69,0.1-1.03,0.14c0.02-0.39,0.04-0.78,0.06-1.17
		C527.2,121.88,527.52,122.22,527.85,122.57z"/>
	<path class="st3" d="M524.08,118.06c0.32,0.51,0.65,1.03,0.97,1.54C524.73,119.09,524.4,118.57,524.08,118.06z"/>
	<path class="st3" d="M530.94,127.5c0.08,0.21,0.15,0.41,0.23,0.62c-0.04-0.21-0.09-0.42-0.13-0.63
		C531.04,127.5,530.94,127.5,530.94,127.5z"/>
	<path class="st3" d="M528.09,124.62c0,0.13,0,0.26-0.01,0.39c0.05-0.13,0.1-0.26,0.15-0.39
		C528.24,124.62,528.09,124.62,528.09,124.62z"/>
	<path class="st7" d="M520.08,242.23c-0.15,80.93-65.03,143.1-143.1,142.23c-75.61-0.85-140.37-62.37-140.01-142.8
		c0.34-77.15,65.3-140.53,141.77-140.47C456.87,101.26,520.3,165.85,520.08,242.23z M516.85,242.35
		c0.75-74.84-61.92-140.46-142.91-137.92c-72.13,2.26-135.63,61.73-133.41,142.88c2,73.26,61.1,133.84,137.87,134.08
		C456.73,381.62,518,317.47,516.85,242.35z"/>
	<path class="st8" d="M388.21,433.02c-7.14,0.02-14.29,0.03-21.43,0.05c0.75-0.54,1.49-1.51,2.25-1.53c5.63-0.13,11.26-0.13,16.89,0
		C386.69,431.56,387.44,432.5,388.21,433.02z"/>
	<path class="st8" d="M439.29,440.11c-4.07-0.92-8.13-1.85-12.2-2.77C431.55,436.53,435.78,436.71,439.29,440.11z"/>
	<path class="st8" d="M329.88,437.45c-3.03,0.6-6.07,1.21-9.1,1.81C323.4,436.58,326.34,435.54,329.88,437.45z"/>
	<path class="st8" d="M350.92,434.4c-2.37,0.27-4.75,0.54-7.12,0.8C346.17,434.94,348.55,434.67,350.92,434.4z"/>
	<path class="st8" d="M413.17,435.19c-2.04-0.26-4.09-0.53-6.13-0.79C409.09,434.66,411.13,434.92,413.17,435.19z"/>
	<path class="st9" d="M73.59,671.99c0.22-2.05,0.44-4.1,0.66-6.15C74.04,667.89,73.81,669.94,73.59,671.99z"/>
	<path class="st9" d="M74.6,658.97c0.19-2.05,0.39-4.1,0.58-6.15C74.98,654.86,74.79,656.91,74.6,658.97z"/>
	<path class="st8" d="M447.04,441.96c-1.97-0.49-3.95-0.98-5.92-1.47C443.09,440.98,445.06,441.47,447.04,441.96z"/>
	<path class="st8" d="M403.18,434.13c-1.72-0.27-3.44-0.55-5.16-0.82C399.74,433.59,401.46,433.86,403.18,434.13z"/>
	<path class="st8" d="M360.94,433.38c-1.73,0.23-3.47,0.45-5.2,0.68C357.48,433.84,359.21,433.61,360.94,433.38z"/>
	<path class="st8" d="M340.9,435.36c-1.4,0.24-2.79,0.48-4.19,0.72C338.11,435.84,339.5,435.6,340.9,435.36z"/>
	<path class="st8" d="M420.23,436.12c-1.06-0.22-2.11-0.44-3.17-0.67C418.12,435.68,419.18,435.9,420.23,436.12z"/>
	<path class="st8" d="M334.89,436.35c-0.73,0.24-1.46,0.48-2.2,0.72C333.42,436.82,334.16,436.59,334.89,436.35z"/>
	<path class="st8" d="M315.82,440.8c-0.65,0.2-1.31,0.39-1.96,0.59c0.24-0.52,0.49-1.05,0.73-1.57
		C315,440.14,315.41,440.47,315.82,440.8z"/>
	<path class="st10" d="M516.85,242.35c1.15,75.13-60.12,139.28-138.46,139.04c-76.76-0.24-135.86-60.82-137.87-134.08
		c-2.22-81.15,61.28-140.62,133.41-142.88C454.93,101.88,517.59,167.5,516.85,242.35z"/>
</g>
</svg>
